<svg width="118" height="85" viewBox="0 0 118 85" fill="none" xmlns="http://www.w3.org/2000/svg">
<path d="M3.71559 42.2499L3.71559 13.5403H8.83052V16.0152H9.57301C10.0405 15.2177 10.7692 14.5165 11.7592 13.9115C12.7492 13.279 14.1655 12.9628 16.0079 12.9628C17.6579 12.9628 19.1841 13.3753 20.5866 14.2003C21.9891 14.9977 23.1166 16.1802 23.9691 17.7477C24.8216 19.3152 25.2478 21.2127 25.2478 23.4401V24.1001C25.2478 26.3276 24.8216 28.2251 23.9691 29.7926C23.1166 31.36 21.9891 32.5563 20.5866 33.3813C19.1841 34.1787 17.6579 34.5775 16.0079 34.5775C14.7704 34.5775 13.7255 34.4262 12.873 34.1237C12.048 33.8488 11.3742 33.4913 10.8517 33.0513C10.3568 32.5838 9.95801 32.1163 9.65551 31.6488H8.91302V42.2499H3.71559ZM14.4405 30.0401C16.0629 30.0401 17.3967 29.5313 18.4416 28.5138C19.5141 27.4688 20.0504 25.9564 20.0504 23.9764V23.5639C20.0504 21.5839 19.5141 20.0852 18.4416 19.0677C17.3692 18.0227 16.0354 17.5002 14.4405 17.5002C12.8455 17.5002 11.5117 18.0227 10.4393 19.0677C9.36677 20.0852 8.83052 21.5839 8.83052 23.5639V23.9764C8.83052 25.9564 9.36677 27.4688 10.4393 28.5138C11.5117 29.5313 12.8455 30.0401 14.4405 30.0401ZM30.0202 34L30.0202 13.5403H35.1351V15.8502H35.8776C36.1801 15.0252 36.6751 14.4203 37.3626 14.0353C38.0776 13.6503 38.9026 13.4578 39.8376 13.4578H42.3125V18.0777H39.7551C38.4351 18.0777 37.3488 18.4352 36.4963 19.1502C35.6439 19.8377 35.2176 20.9102 35.2176 22.3676V34H30.0202ZM55.3847 34.5775C53.3498 34.5775 51.521 34.165 49.8986 33.34C48.2761 32.515 46.9973 31.3188 46.0624 29.7513C45.1274 28.1838 44.6599 26.3001 44.6599 24.1001V23.4401C44.6599 21.2402 45.1274 19.3564 46.0624 17.789C46.9973 16.2215 48.2761 15.0252 49.8986 14.2003C51.521 13.3753 53.3498 12.9628 55.3847 12.9628C57.4197 12.9628 59.2484 13.3753 60.8709 14.2003C62.4934 15.0252 63.7721 16.2215 64.7071 17.789C65.6421 19.3564 66.1096 21.2402 66.1096 23.4401V24.1001C66.1096 26.3001 65.6421 28.1838 64.7071 29.7513C63.7721 31.3188 62.4934 32.515 60.8709 33.34C59.2484 34.165 57.4197 34.5775 55.3847 34.5775ZM55.3847 29.9576C56.9797 29.9576 58.2997 29.4488 59.3447 28.4313C60.3897 27.3863 60.9122 25.9014 60.9122 23.9764V23.5639C60.9122 21.6389 60.3897 20.1677 59.3447 19.1502C58.3272 18.1052 57.0072 17.5827 55.3847 17.5827C53.7898 17.5827 52.4698 18.1052 51.4248 19.1502C50.3798 20.1677 49.8573 21.6389 49.8573 23.5639V23.9764C49.8573 25.9014 50.3798 27.3863 51.4248 28.4313C52.4698 29.4488 53.7898 29.9576 55.3847 29.9576ZM69.9171 23.8526V23.1926C69.9171 21.0477 70.3434 19.2189 71.1959 17.7065C72.0483 16.1665 73.1758 14.9977 74.5783 14.2003C76.0083 13.3753 77.562 12.9628 79.2395 12.9628C81.1095 12.9628 82.5257 13.2928 83.4882 13.9528C84.4507 14.6127 85.1519 15.3002 85.5919 16.0152H86.3344V13.5403H91.4493V37.63C91.4493 39.0324 91.0369 40.1462 90.2119 40.9712C89.3869 41.8236 88.2869 42.2499 86.9119 42.2499H73.2171V37.7125H85.0969C85.8669 37.7125 86.2519 37.3 86.2519 36.475V31.1538H85.5094C85.2344 31.5938 84.8494 32.0475 84.3544 32.515C83.8594 32.955 83.1995 33.3263 82.3745 33.6288C81.5495 33.9313 80.5045 34.0825 79.2395 34.0825C77.562 34.0825 76.0083 33.6838 74.5783 32.8863C73.1758 32.0613 72.0483 30.8925 71.1959 29.3801C70.3434 27.8401 69.9171 25.9976 69.9171 23.8526ZM80.7245 29.5451C82.3195 29.5451 83.6532 29.0363 84.7257 28.0188C85.7982 27.0013 86.3344 25.5714 86.3344 23.7289V23.3164C86.3344 21.4464 85.7982 20.0164 84.7257 19.0264C83.6807 18.009 82.347 17.5002 80.7245 17.5002C79.1295 17.5002 77.7958 18.009 76.7233 19.0264C75.6508 20.0164 75.1146 21.4464 75.1146 23.3164V23.7289C75.1146 25.5714 75.6508 27.0013 76.7233 28.0188C77.7958 29.0363 79.1295 29.5451 80.7245 29.5451Z" fill="black"/>
<path d="M6.9743 79.8861C5.87431 79.8861 4.93932 79.5286 4.16933 78.8136C3.42684 78.0711 3.0556 77.1224 3.0556 75.9674C3.0556 74.8124 3.42684 73.8774 4.16933 73.1624C4.93932 72.4199 5.87431 72.0487 6.9743 72.0487C8.10178 72.0487 9.03677 72.4199 9.77926 73.1624C10.5218 73.8774 10.893 74.8124 10.893 75.9674C10.893 77.1224 10.5218 78.0711 9.77926 78.8136C9.03677 79.5286 8.10178 79.8861 6.9743 79.8861ZM22.3542 79.8861C20.8967 79.8861 19.5905 79.6386 18.4355 79.1436C17.2805 78.6211 16.3593 77.8786 15.6718 76.9161C15.0118 75.9261 14.6818 74.7299 14.6818 73.3274C14.6818 71.9249 15.0118 70.7562 15.6718 69.8212C16.3593 68.8587 17.2943 68.1437 18.4768 67.6762C19.6868 67.1812 21.0617 66.9338 22.6017 66.9338H28.2117V65.7788C28.2117 64.8163 27.9092 64.0325 27.3042 63.4275C26.6992 62.7951 25.7367 62.4788 24.4167 62.4788C23.1242 62.4788 22.1617 62.7813 21.5292 63.3863C20.8967 63.9638 20.4842 64.72 20.2918 65.655L15.5068 64.0463C15.8368 63.0013 16.3593 62.0526 17.0743 61.2001C17.8168 60.3201 18.793 59.6188 20.003 59.0964C21.2405 58.5464 22.7392 58.2714 24.4992 58.2714C27.1942 58.2714 29.3254 58.9451 30.8929 60.2926C32.4603 61.6401 33.2441 63.5925 33.2441 66.15V73.7812C33.2441 74.6062 33.6291 75.0186 34.3991 75.0186H36.0491V79.3086H32.5841C31.5666 79.3086 30.7279 79.0611 30.0679 78.5661C29.4079 78.0711 29.0779 77.4111 29.0779 76.5861V76.5449H28.2941C28.1842 76.8749 27.9367 77.3149 27.5517 77.8649C27.1667 78.3874 26.5617 78.8548 25.7367 79.2673C24.9117 79.6798 23.7842 79.8861 22.3542 79.8861ZM23.2617 75.6786C24.7192 75.6786 25.9017 75.2799 26.8092 74.4824C27.7442 73.6574 28.2117 72.5712 28.2117 71.2237V70.8112H22.973C22.0105 70.8112 21.2542 71.0174 20.7042 71.4299C20.1543 71.8424 19.8793 72.4199 19.8793 73.1624C19.8793 73.9049 20.168 74.5099 20.7455 74.9774C21.323 75.4449 22.1617 75.6786 23.2617 75.6786ZM39.8492 79.3086V58.8489H45.0466V79.3086H39.8492ZM42.4479 56.4564C41.5129 56.4564 40.7154 56.1539 40.0554 55.5489C39.4229 54.9439 39.1067 54.1464 39.1067 53.1564C39.1067 52.1664 39.4229 51.369 40.0554 50.764C40.7154 50.159 41.5129 49.8565 42.4479 49.8565C43.4104 49.8565 44.2079 50.159 44.8403 50.764C45.4728 51.369 45.7891 52.1664 45.7891 53.1564C45.7891 54.1464 45.4728 54.9439 44.8403 55.5489C44.2079 56.1539 43.4104 56.4564 42.4479 56.4564Z" fill="black"/>
<path d="M52.6596 84.5183V80.1714H57.6101C58.3346 80.1714 58.6968 79.769 58.6968 78.964V67.936C58.6968 67.0237 58.9786 66.259 59.5421 65.6418C60.1324 65.0247 60.8971 64.7161 61.8362 64.7161H62.4802V63.9916H61.8362C60.8971 63.9916 60.1324 63.6831 59.5421 63.0659C58.9786 62.4488 58.6968 61.6841 58.6968 60.7718V49.7438C58.6968 48.9388 58.3346 48.5363 57.6101 48.5363H52.6596V44.1895H59.5018C60.7093 44.1895 61.6886 44.5786 62.4399 45.3567C63.2181 46.108 63.6071 47.0874 63.6071 48.2948V60.7718C63.6071 61.5499 63.9694 61.939 64.6938 61.939H69.3224V66.7688H64.6938C63.9694 66.7688 63.6071 67.1578 63.6071 67.936V80.4129C63.6071 81.6204 63.2181 82.5998 62.4399 83.3511C61.6886 84.1292 60.7093 84.5183 59.5018 84.5183H52.6596Z" fill="black"/>
<path d="M117.184 0.614551L117.184 4.96136L112.234 4.96136C111.509 4.96136 111.147 5.36385 111.147 6.16881L111.147 17.1968C111.147 18.1091 110.865 18.8738 110.302 19.491C109.711 20.1081 108.947 20.4167 108.008 20.4167L107.364 20.4167L107.364 21.1412L108.008 21.1412C108.947 21.1412 109.711 21.4497 110.302 22.0669C110.865 22.684 111.147 23.4487 111.147 24.361L111.147 35.3891C111.147 36.194 111.509 36.5965 112.234 36.5965L117.184 36.5965L117.184 40.9433L110.342 40.9433C109.134 40.9433 108.155 40.5543 107.404 39.7761C106.626 39.0248 106.237 38.0454 106.237 36.838L106.237 24.361C106.237 23.5829 105.874 23.1938 105.15 23.1938L100.521 23.1938L100.521 18.364L105.15 18.364C105.874 18.364 106.237 17.975 106.237 17.1968L106.237 4.71988C106.237 3.51243 106.626 2.53305 107.404 1.78175C108.155 1.00362 109.134 0.614552 110.342 0.614551L117.184 0.614551Z" fill="black"/>
</svg>
